<svg width="222" height="80" viewBox="0 0 222 80" fill="none" xmlns="http://www.w3.org/2000/svg">
<rect width="222" height="80" rx="6" fill="#CE1531"/>
<g clip-path="url(#clip0_3_502)">
<path d="M201.509 15.4526L199.277 12.6469H198.024V19.0861H199.418V14.8081L201.509 17.4305L203.6 14.7891V19.0861H204.994V12.6469H203.753L201.503 15.4526H201.509ZM192.851 12.6469H191.361L193.689 16.9692L193.504 17.2915C193.318 17.6137 192.992 17.936 192.436 17.936C192.11 17.936 191.879 17.8412 191.879 17.8412V19.0355C191.879 19.0355 192.206 19.1746 192.621 19.1746C193.74 19.1746 194.399 18.53 194.904 17.4747L197.187 12.6469H195.697L194.392 15.6801L192.858 12.6469H192.851ZM188.618 13.8855C189.175 13.8855 189.597 14.3025 189.597 14.8081C189.597 15.3136 189.181 15.7306 188.618 15.7306H187.314V13.8918H188.618V13.8855ZM185.92 12.6469V19.0861H187.314V16.9692H188.663C190.012 16.9692 190.991 16.034 190.991 14.8081C190.991 13.5822 190.012 12.6469 188.663 12.6469H185.92ZM177.544 15.8634C177.544 17.7022 179.078 19.2188 181.08 19.2188C183.081 19.2188 184.616 17.7022 184.616 15.8634C184.616 14.0245 183.081 12.5079 181.08 12.5079C179.078 12.5079 177.544 14.0245 177.544 15.8634ZM178.989 15.8634C178.989 14.669 179.916 13.7464 181.08 13.7464C182.243 13.7464 183.171 14.669 183.171 15.8634C183.171 17.0577 182.237 17.9803 181.08 17.9803C179.922 17.9803 178.989 17.0577 178.989 15.8634ZM175.312 15.7686C175.312 16.5964 174.705 17.1967 173.733 17.2409V14.3025C174.711 14.3468 175.312 14.9471 175.312 15.7749M173.733 18.4416C175.504 18.3973 176.713 17.203 176.713 15.7749C176.713 14.3468 175.504 13.1525 173.733 13.1082V12.4194H172.339V13.1082C170.568 13.1525 169.359 14.3531 169.359 15.7749C169.359 17.1967 170.568 18.3973 172.339 18.4416V19.2694H173.733V18.4416ZM170.753 15.7749C170.753 14.9471 171.361 14.3468 172.333 14.3025V17.2472C171.354 17.203 170.753 16.6027 170.753 15.7749ZM168.656 15.4147H165.305V16.5205H168.656V15.4147ZM162.837 17.5695L163.394 19.0861H164.883L162.326 12.6469H160.836L158.278 19.0861H159.768L160.324 17.5695H162.837ZM162.371 16.3752H160.785L161.578 14.2583L162.371 16.3752ZM153.809 12.6532H152.415V19.0924H153.809V17.2536L154.646 16.331L156.552 19.0924H158.182L155.574 15.3199L157.997 12.6532H156.366L153.809 15.4589V12.6469V12.6532ZM148.642 13.8033C149.109 13.8033 149.384 14.0814 149.384 14.4921C149.384 14.9028 149.103 15.1809 148.642 15.1809H147.338V13.8033H148.642ZM147.338 17.9423V16.2867H148.828C149.339 16.2867 149.71 16.6532 149.71 17.1145C149.71 17.5758 149.339 17.9423 148.828 17.9423H147.338ZM148.892 19.0924C150.222 19.0924 151.104 18.2014 151.104 17.2093C151.104 16.1035 150.036 15.6927 150.036 15.6927C150.036 15.6927 150.778 15.282 150.778 14.3594C150.778 13.4368 149.94 12.6596 148.732 12.6596H145.938V19.0987H148.885L148.892 19.0924ZM142.964 17.5758L143.521 19.0924H145.01L142.453 12.6532H140.963L138.405 19.0924H139.895L140.451 17.5758H142.964ZM142.498 16.3815H140.918L141.711 14.2646L142.504 16.3815H142.498ZM133.565 12.6596V13.8981H135.426V19.0924H136.82V13.8918H138.68V12.6469H133.559L133.565 12.6596ZM130.355 12.5205C128.354 12.5205 126.819 14.0371 126.819 15.876C126.819 17.7149 128.354 19.2314 130.355 19.2314C132.171 19.2314 133.098 17.9423 133.098 17.9423L132.261 17.0703C132.261 17.0703 131.608 17.9929 130.355 17.9929C129.102 17.9929 128.213 17.0703 128.213 15.876C128.213 14.6817 129.147 13.7591 130.355 13.7591C131.564 13.7591 132.171 14.6817 132.171 14.6817L133.053 13.8096C133.053 13.8096 132.171 12.5205 130.355 12.5205ZM119.792 17.8539V16.015H121.001C121.557 16.015 121.979 16.4321 121.979 16.9376C121.979 17.4431 121.563 17.8602 121.001 17.8602H119.792V17.8539ZM121.052 19.0924C122.401 19.0924 123.379 18.1446 123.379 16.9313C123.379 15.718 122.401 14.7701 121.052 14.7701H119.792V12.6469H118.398V19.0861H121.052V19.0924ZM125.521 12.6532H124.127V19.0924H125.521V12.6469V12.6532ZM114.632 13.8033C115.099 13.8033 115.38 14.0814 115.38 14.4921C115.38 14.9028 115.099 15.1809 114.632 15.1809H113.328V13.8033H114.632ZM113.328 17.9423V16.2867H114.817C115.329 16.2867 115.7 16.6532 115.7 17.1145C115.7 17.5758 115.329 17.9423 114.817 17.9423H113.328ZM114.881 19.0924C116.211 19.0924 117.094 18.2014 117.094 17.2093C117.094 16.1035 116.026 15.6927 116.026 15.6927C116.026 15.6927 116.768 15.282 116.768 14.3594C116.768 13.4368 115.93 12.6596 114.722 12.6596H111.927V19.0987H114.875L114.881 19.0924ZM104.625 14.7701C104.625 14.2646 104.996 13.8981 105.508 13.8981H106.953V15.5979H105.508C104.996 15.5979 104.625 15.2314 104.625 14.7701ZM108.347 12.6532H105.463C104.158 12.6532 103.231 13.5885 103.231 14.7701C103.231 16.1477 104.395 16.6532 104.395 16.6532L103.001 19.0924H104.491L105.751 16.8365H106.959V19.0924H108.353V12.6469L108.347 12.6532ZM100.527 17.5758L101.083 19.0924H102.573L100.015 12.6532H98.5252L95.9675 19.0924H97.4574L98.0137 17.5758H100.527ZM100.06 16.3815H98.474L99.2669 14.2646L100.06 16.3815ZM95.034 12.6596H93.6401V15.2314H90.8459V12.6469H89.4519V19.0861H90.8459V16.4637H93.6401V19.0861H95.034V12.6469V12.6596ZM84.4709 14.6374V13.9044H86.1909V17.8602H83.4479C83.4479 17.8602 84.4709 16.9376 84.4709 14.6438M81.6767 17.8602V20.4384H83.0706V19.1051H86.9774V20.4384H88.3713V17.8602H87.5785V12.6469H83.0642V14.6248C83.0642 16.925 82.0411 17.8412 82.0411 17.8412H81.6703L81.6767 17.8602ZM74.3234 15.8823C74.3234 17.7212 75.858 19.2378 77.8594 19.2378C79.8607 19.2378 81.3953 17.7212 81.3953 15.8823C81.3953 14.0434 79.8671 12.5079 77.8658 12.5079C75.8644 12.5079 74.3298 14.0245 74.3298 15.8634M75.7749 15.8634C75.7749 14.669 76.7084 13.7464 77.8722 13.7464C79.0359 13.7464 79.9695 14.669 79.9695 15.8634C79.9695 17.0577 79.0359 17.9803 77.8722 17.9803C76.7084 17.9803 75.7749 17.0577 75.7749 15.8634ZM71.0752 13.8855C71.6315 13.8855 72.0535 14.3025 72.0535 14.8081C72.0535 15.3136 71.6379 15.7306 71.0752 15.7306H69.7708V13.8918H71.0752V13.8855ZM68.3769 12.6469V19.0861H69.7708V16.9692H71.12C72.4691 16.9692 73.4474 16.034 73.4474 14.8081C73.4474 13.5822 72.4691 12.6469 71.12 12.6469H68.3769ZM65.3972 17.5695L65.9535 19.0861H67.4434L64.8857 12.6469H63.3959L60.8382 19.0861H62.3281L62.8844 17.5695H65.3972ZM64.9305 16.3752H63.3511L64.144 14.2583L64.9369 16.3752H64.9305ZM59.9047 12.6532H58.5108V15.2251H55.7165V12.6469H54.3226V19.0861H55.7165V16.4637H58.5108V19.0861H59.9047V12.6469V12.6532ZM49.1562 12.6532H47.6663L49.9938 16.9755L49.8084 17.2978C49.6229 17.6201 49.2968 17.9423 48.7406 17.9423C48.4144 17.9423 48.1843 17.8476 48.1843 17.8476V19.0419C48.1843 19.0419 48.5104 19.1809 48.926 19.1809C50.045 19.1809 50.7035 18.5363 51.2087 17.481L53.4914 12.6532H52.0016L50.6972 15.6864L49.1626 12.6532H49.1562ZM43.3887 14.6311V13.8981H45.1087V17.8539H42.3656C42.3656 17.8539 43.3887 16.9313 43.3887 14.6374M40.5944 17.8539V20.4321H41.9884V19.0987H45.8952V20.4321H47.2891V17.8539H46.4962V12.6469H41.982V14.6248C41.982 16.925 40.9589 17.8412 40.9589 17.8412H40.588L40.5944 17.8539ZM35.1019 16.9313V19.0924H36.4958V16.9313L37.0521 16.331L38.9575 19.0924H40.588L37.9856 15.3199L40.4026 12.6532H38.7721L36.4894 15.1367V12.6469H35.0955V15.1303L32.8128 12.6469H31.1823L33.5993 15.3136L30.9905 19.0861H32.621L34.5264 16.3246L35.0827 16.925L35.1019 16.9313ZM27.0517 17.8539V16.4258H29.7052V15.1809H27.0517V13.8918H30.447V12.6469H25.6514V19.0861H30.5365V17.8476H27.0453L27.0517 17.8539ZM20.4913 15.4652L18.2598 12.6469H17.0001V19.0861H18.394V14.8081L20.4913 17.4305L22.5886 14.7891V19.0861H23.9825V12.6469H22.742L20.4913 15.4526V15.4652Z" fill="white"/>
</g>
<path d="M159.478 34.3081V37.1401C157.482 37.3629 156.079 36.9532 156.079 36.9532C156.079 36.9532 157.719 38.5561 157.615 41.2228C157.461 45.1761 153.036 48.2813 152.638 53.1834C152.296 57.3524 154.264 60.4001 154.264 60.4001L152.114 60.5582L151.912 34.4159L142.691 34.3009L143.2 64.569H152.142L152.121 61.7011C152.826 61.5357 154.271 61.2914 155.772 61.5645C155.772 61.5645 153.678 59.3075 154.201 55.8358C154.969 50.7396 158.564 49.1582 158.752 43.4295C158.871 39.7924 157.587 37.9523 157.587 37.9523C157.587 37.9523 158.655 38.053 159.492 38.0314L159.569 64.5618H168.616L168.692 34.2937H159.471L159.478 34.3081Z" fill="white"/>
<path d="M106.61 38.8578C106.128 38.8865 105.667 38.6781 105.221 38.5343C104.99 38.4625 104.753 38.4121 104.516 38.4193C104.25 38.4265 103.992 38.5343 103.72 38.5487C103.231 38.5775 102.826 38.254 102.554 37.8659C102.254 37.449 102.058 36.9602 101.779 36.5361C101.563 36.2055 101.319 35.8892 101.053 35.5873C100.788 35.2926 100.502 35.0123 100.195 34.7607C99.8876 34.5091 99.5665 34.2791 99.2244 34.0779C98.8824 33.8766 98.5334 33.6969 98.1634 33.5531C97.8982 33.4453 97.6329 33.3663 97.3677 33.28C97.3398 33.2728 97.3118 33.2584 97.2909 33.2369C97.2002 33.1362 97.3886 33.0787 97.4514 33.0715C97.9261 32.9925 98.4147 32.9637 98.8964 33.014C99.2803 33.0572 99.6572 33.1578 100.013 33.3016C100.062 33.3231 100.118 33.3447 100.167 33.3663C100.523 33.5172 100.865 33.7113 101.193 33.9269C101.528 34.1425 101.842 34.3869 102.149 34.6385C102.456 34.8901 102.749 35.156 103.043 35.4292C103.224 35.5945 103.399 35.767 103.58 35.9323C104.362 36.6655 105.186 37.4346 106.149 37.9018C106.282 37.9665 106.463 38.0384 106.596 37.9377C106.686 37.8659 106.735 37.7221 106.603 37.6574C106.512 37.6143 106.386 37.643 106.288 37.643C106.198 37.643 106.107 37.6358 106.023 37.5927C105.618 37.4202 105.521 36.9099 105.737 36.5433C105.988 36.1336 106.512 36.0186 106.938 36.1551C107.329 36.2845 107.643 36.6008 107.796 36.9889C108.124 37.8371 107.489 38.7931 106.624 38.8434" fill="white"/>
<path d="M76.7548 59.2644C75.9661 58.7756 75.0167 59.1709 74.2489 59.5159C73.523 59.8394 72.7761 60.1629 71.9733 60.0191C71.6383 59.9616 71.2893 59.7963 71.0589 59.5303C70.8565 59.2931 70.7308 58.9984 70.7029 58.6822C70.6401 58.064 71.0729 57.4387 71.722 57.5393C72.1688 57.6112 72.5876 58.0209 72.5527 58.4737C72.7342 58.3946 72.9226 58.3228 73.1181 58.2724C74.4095 57.9131 75.8544 58.1503 76.9433 58.9481C77.1248 59.0847 76.9642 59.3866 76.7688 59.2644" fill="white"/>
<path d="M79.1281 60.2994C79.2049 60.3713 79.4143 60.5078 79.4353 60.3066C79.4353 60.2563 79.4283 60.2131 79.4073 60.1628C79.3026 59.8394 79.1491 59.5375 78.9955 59.2356C78.8768 59.0056 78.7582 58.7828 78.6256 58.5671C78.4929 58.3443 78.3463 58.1215 78.1998 57.9058C78.123 57.8052 78.0532 57.6974 77.9764 57.5968C77.9485 57.5608 77.7391 57.3452 77.753 57.3092C77.8787 56.7989 77.4668 56.2598 76.9782 56.1736C77.0969 55.8645 77.0969 55.5123 76.9503 55.2032C76.8177 54.9229 76.5664 54.7216 76.2802 54.6282C76.3639 54.4053 76.35 54.1178 76.2523 53.9166C76.1406 53.6794 75.9312 53.5069 75.8334 53.2625C75.7427 53.0253 75.8683 52.8312 76.0289 52.6659C76.2034 52.4862 76.3919 52.3137 76.5035 52.0765C76.6292 51.8033 76.6431 51.5014 76.5943 51.2067C76.4896 50.5886 76.0847 50.1214 75.7497 49.6182C75.4984 49.2444 75.2122 48.6766 75.3448 48.2022C75.5054 48.425 75.7636 48.576 76.0498 48.5975C76.5035 48.6335 76.8735 48.3028 76.9991 47.8716C77.1318 47.4044 76.9642 46.9084 76.5873 46.6137C76.2034 46.3118 75.6799 46.2543 75.2331 46.434C74.1442 46.8724 73.865 48.1591 73.9348 49.2444C74.0116 50.4089 74.4164 51.5518 74.3257 52.7306C74.2978 53.0612 74.214 53.3703 74.1163 53.6866C74.0255 53.9884 73.9418 54.3406 74.0395 54.6569C74.1372 54.966 74.4374 55.2319 74.7445 55.2535C74.6747 55.5698 74.7375 55.9148 74.933 56.1807C75.1214 56.4323 75.4007 56.5833 75.7008 56.6192C75.6031 56.8923 75.631 57.2158 75.7985 57.453C75.98 57.7046 76.2732 57.8268 76.5594 57.8052C76.5594 58.2796 77.1318 58.7037 77.4598 58.9481C77.746 59.1637 78.0252 59.3722 78.3114 59.5878C78.451 59.6956 78.5906 59.7962 78.7303 59.9041C78.8908 60.0263 78.9885 60.17 79.1351 60.2994" fill="white"/>
<path d="M84.5658 64.648C84.3424 64.4899 84.133 64.3174 83.8957 64.188C83.6514 64.0514 83.3931 63.9436 83.1279 63.843C82.2484 63.5195 81.32 63.498 80.4195 63.2823C79.7773 63.1314 79.1561 62.887 78.6116 62.4989C78.0602 62.0963 77.5785 61.6004 77.0131 61.2122C76.4896 60.8456 75.8823 60.5941 75.2332 60.7091C74.6189 60.8169 74.0395 61.1907 73.7045 61.7441C73.0134 62.9086 73.6067 64.6121 74.9121 64.9571C75.5542 65.1296 76.2872 64.8565 76.5594 64.2024C76.7618 63.7136 76.5594 63.1242 76.1196 62.887C76.1336 62.9229 76.1545 62.9589 76.1615 62.9948C76.3151 63.4333 76.1545 63.9796 75.7288 64.1952C75.282 64.418 74.7026 64.2814 74.3885 63.8933C74.0256 63.4477 74.0325 62.7864 74.3048 62.3048C74.5491 61.8591 75.0098 61.586 75.4914 61.5141C75.987 61.4422 76.4966 61.5644 76.8875 61.8879C77.2923 62.2185 77.5366 62.7217 77.6064 63.2392C77.76 64.3749 77.055 65.4028 76.0638 65.8412C74.9539 66.3372 73.6067 66.064 72.6365 65.3596C72.1967 65.0362 71.8058 64.6193 71.5755 64.1161C71.3381 63.5914 71.2823 63.0164 71.4219 62.4557C71.7221 61.2625 72.7412 60.4575 73.872 60.1915C75.1633 59.8897 76.4756 60.2131 77.6972 60.6516C79.882 61.435 81.9761 62.4989 83.9166 63.7927C84.2168 63.9436 84.496 64.1305 84.7543 64.3749C84.9009 64.5115 84.7054 64.7774 84.5379 64.6624" fill="white"/>
<path d="M105.8 57.7837C105.8 58.2725 105.556 58.7325 105.29 59.1207C105.039 59.4872 104.767 59.8466 104.481 60.1845C103.915 60.8601 103.287 61.4927 102.617 62.0533C101.27 63.189 99.748 64.0875 98.1216 64.72C96.4952 65.3525 94.7571 65.7048 93.019 65.7407C91.3158 65.7766 89.6056 65.4963 87.9862 64.9356C86.3668 64.375 84.845 63.5412 83.4839 62.4846C80.2171 59.9401 78.123 56.1521 77.5646 51.9759C76.9364 47.2535 78.4441 42.3226 81.1943 38.549C82.6113 36.6082 84.4402 34.9766 86.5622 33.8984C88.9774 32.6765 91.7625 32.1014 94.429 32.619C96.7674 33.0718 98.9871 34.3872 100.369 36.3998C101.493 38.0314 102.017 40.1375 101.723 42.1213C102.114 42.4376 102.359 42.9479 102.205 43.4655C102.079 43.8967 101.668 44.1843 101.256 44.1339C101.179 44.2777 101.095 44.4143 101.004 44.5508C99.8387 46.3406 97.8842 47.5626 95.7552 47.4404C94.7082 47.3829 93.6821 47.0019 92.8794 46.2903C92.1395 45.6362 91.595 44.7305 91.3926 43.7458C91.1971 42.7754 91.3646 41.7619 91.8463 40.9066C92.3279 40.0584 93.1097 39.3828 94.0451 39.1384C95.0572 38.8724 96.209 39.124 96.8651 40.0081C97.1583 40.3962 97.3328 40.885 97.3188 41.381C97.3049 41.8482 97.1094 42.3082 96.7883 42.646C96.4742 42.9839 96.0345 43.1923 95.5738 43.1708C95.1061 43.1492 94.6384 42.9048 94.429 42.4592C94.2335 42.0423 94.2615 41.4888 94.6035 41.1653C94.9037 40.8778 95.3783 40.7988 95.7273 41.0216C95.5389 40.5903 95.0014 40.4753 94.5826 40.6191C94.1149 40.7844 93.7449 41.1797 93.5216 41.6254C93.1376 42.3945 93.1725 43.3433 93.5983 44.0836C94.0311 44.8312 94.792 45.3415 95.6226 45.4853C96.558 45.6506 97.5422 45.3703 98.31 44.8024C98.7498 44.479 99.1267 44.0621 99.4269 43.5948C99.3361 43.2498 99.3152 42.8832 99.4129 42.5239C99.5805 41.9345 100.097 41.4816 100.704 41.5247C100.655 41.151 100.572 40.7844 100.467 40.4322C99.9085 38.5418 98.6242 36.9317 96.921 36.0116C95.2108 35.0916 93.2144 34.9263 91.3716 35.5085C89.5847 36.0763 88.0071 37.2839 86.8693 38.8005C85.6478 40.425 84.9009 42.3873 84.517 44.3927C84.1261 46.4197 84.0772 48.5329 84.3983 50.5743C84.7194 52.6084 85.4035 54.5779 86.4994 56.3102C87.4836 57.87 88.8029 59.1997 90.3316 60.1845C91.8463 61.1548 93.5844 61.7802 95.3783 61.8808C96.8861 61.9671 98.4147 61.6795 99.8038 61.0614C99.399 61.1261 99.0011 61.1764 98.5893 61.2123C97.1024 61.3345 95.5668 61.2555 94.1079 60.8961C92.8933 60.5942 91.6508 60.012 91.0296 58.826C90.7294 58.2581 90.5829 57.6184 90.3665 57.0146C90.2618 56.7199 90.1431 56.4324 89.9825 56.1736C89.822 55.9221 89.5847 55.5914 89.2915 55.5052C89.1519 55.462 88.9564 55.5052 88.9285 55.6777C88.9006 55.8574 89.0542 56.0083 89.1868 56.1017C89.3264 56.1952 89.48 56.2671 89.6196 56.3749C89.7243 56.4611 89.815 56.5618 89.8918 56.6768C90.1989 57.1584 90.178 57.8197 89.836 58.2725C89.8011 58.3156 89.7452 58.3228 89.7033 58.2941C89.6545 58.2653 89.6545 58.1934 89.6545 58.1431C89.6545 58.0137 89.6545 57.8915 89.5986 57.7621C89.5637 57.6687 89.5079 57.5896 89.452 57.5106C89.3334 57.3524 89.1798 57.2231 89.0193 57.1152C88.7052 56.8924 88.3561 56.7127 88.0699 56.4468C87.8326 56.2168 87.6581 55.9221 87.6441 55.5842C87.6302 55.2464 87.7837 54.9229 88.0001 54.6857C88.5446 54.0963 89.4241 54.1466 90.1012 54.4342C90.7853 54.7217 91.3716 55.2392 91.7765 55.8717C91.9021 56.073 92.0068 56.2814 92.0976 56.4971C92.1395 56.6049 92.1813 56.7199 92.2162 56.8277C92.2511 56.9427 92.2651 57.0649 92.314 57.1727C92.4047 57.0146 92.4466 56.8062 92.5164 56.6337C92.5862 56.4468 92.663 56.2671 92.7398 56.0874C92.9003 55.7352 93.0818 55.3901 93.3052 55.0739C93.6193 54.621 94.0102 54.2257 94.4779 53.9526C95.0153 53.6363 95.6575 53.4997 96.2718 53.6219C96.8791 53.7441 97.3817 54.1466 97.7097 54.6785C98.0518 55.232 98.2123 55.9077 98.1216 56.5618C98.0378 57.1512 97.7237 57.6975 97.2421 58.0425C96.7883 58.3659 96.188 58.4522 95.6645 58.2581C95.148 58.064 94.7361 57.5968 94.6942 57.0074C94.6593 56.4468 95.1061 55.8717 95.6924 55.9508C96.1182 56.0083 96.4323 56.4971 96.2997 56.914C96.558 56.9571 96.8232 56.8709 97.0187 56.684C97.27 56.4396 97.3398 56.0658 97.256 55.7352C97.0955 55.0667 96.3974 54.7361 95.7692 54.8223C95.1759 54.9014 94.6733 55.3398 94.3592 55.8502C94.0032 56.4252 93.8636 57.1296 93.9264 57.8053C93.9892 58.4306 94.2545 59.0272 94.6593 59.4944C95.0991 60.0048 95.6785 60.321 96.3067 60.4864C96.9559 60.6589 97.6329 60.702 98.2961 60.6876C98.9452 60.666 99.5944 60.5798 100.223 60.4145C101.277 60.1413 102.24 59.5376 102.966 58.7109C103.336 58.2869 103.608 57.8197 103.859 57.3165C104.104 56.8349 104.683 56.4108 105.214 56.7127C105.248 56.7343 105.283 56.7558 105.311 56.7774C105.611 57.0002 105.779 57.3956 105.779 57.7765" fill="white"/>
<path d="M95.3085 53.0756C95.12 53.4493 94.6872 53.6434 94.2963 53.5572C93.9473 53.4853 93.689 53.169 93.6262 52.8168C93.5913 52.6299 93.6053 52.443 93.6821 52.2633C93.7658 52.0621 93.9822 51.9039 94.0101 51.6811C94.0381 51.4655 93.8147 51.372 93.6472 51.4224C93.4308 51.4871 93.2982 51.7099 93.1934 51.8968C92.9701 52.2993 92.8514 52.7593 92.8444 53.2265C93.0957 53.32 93.2772 53.6075 93.1934 53.8878C93.1097 54.1609 92.8165 54.2975 92.5582 54.24C92.5931 54.2472 92.6071 54.6138 92.6071 54.6569C92.6141 54.8007 92.6071 54.9516 92.6071 55.0954C92.5862 55.3829 92.5164 55.6488 92.4396 55.922C92.4186 55.9867 92.3977 56.0657 92.3349 56.0945C92.286 56.1232 92.2162 56.1017 92.1673 56.0729C91.9859 55.9507 91.9579 55.5482 91.9091 55.3469C91.8672 55.1744 91.8253 55.0019 91.7764 54.8294C91.7555 54.736 91.7276 54.6425 91.7066 54.5491C91.6927 54.4916 91.6787 54.3694 91.6299 54.3263C91.581 54.2831 91.4972 54.3047 91.4414 54.3047C91.3786 54.3047 91.3088 54.3047 91.2459 54.2903C90.9947 54.2256 90.9039 53.9166 91.0296 53.7009C91.1831 53.4278 91.5112 53.399 91.7904 53.4206C91.7904 52.7521 91.951 52.0908 92.2581 51.5086C92.5373 50.9839 92.9561 50.4664 93.5006 50.2076C93.9962 49.9776 94.6314 49.9704 95.0572 50.3729C95.2387 50.5454 95.3643 50.7898 95.3992 51.0486C95.4341 51.3361 95.3434 51.5949 95.1759 51.8249C95.0013 52.0621 94.7361 52.2849 94.6803 52.594C94.6593 52.7234 94.6803 52.9031 94.7989 52.9821C94.8827 53.0396 95.0223 53.0468 95.0851 52.9606C95.0991 52.939 95.12 52.9246 95.1479 52.9102C95.2317 52.8527 95.3713 52.9606 95.3155 53.0756" fill="white"/>
<path d="M35.5085 40.3458C35.313 42.725 33.7983 44.5866 31.781 44.6154C30.4547 44.6298 29.8335 43.8391 29.5822 43.1491C29.4147 42.7034 29.3868 42.2865 29.4496 42.265C29.4845 42.2506 29.5473 42.4375 29.5962 42.5022C29.8824 42.8759 30.2523 43.0844 30.8596 43.0844C31.2924 43.0844 32.4511 42.9334 32.6884 41.5462C32.9397 40.0439 31.6344 39.1957 30.7689 39.1814C29.9312 39.167 27.9907 39.5623 27.5579 42.1643C27.1182 44.7735 29.5613 47.0018 29.5613 47.0018L26.4341 50.071C26.4341 50.071 26.3852 43.2713 26.7273 40.2883C27.0693 37.3053 28.8074 35.0699 31.1877 35.0699C34.0566 35.0699 35.7458 37.7582 35.5294 40.3386M42.2933 40.3386C42.0839 34.4302 35.3549 31.9072 31.2365 31.9072C27.1182 31.9072 19.1327 33.582 18.4556 42.2218C18.2253 47.239 18.3649 62.8438 18.3649 62.8438C18.3649 62.8438 18.1206 63.1314 17.3108 63.1314C16.3336 63.1314 15.5309 63.1026 15.3773 63.1314C15.0841 63.1817 14.9934 63.5626 15.0004 63.8645C15.0143 64.2886 15.0981 64.5546 15.3773 64.5689C15.9497 64.6049 20.5497 64.382 22.5112 64.382C24.4726 64.382 28.7865 64.5689 29.3239 64.5689C29.7009 64.5689 29.7637 64.2311 29.7707 63.8645C29.7707 63.4764 29.7846 63.117 29.3519 63.117C28.9191 63.117 26.4132 63.1745 26.4132 62.8438C26.4132 62.3982 26.4132 53.4996 26.4132 53.0899C26.4132 52.6802 31.2016 47.7205 31.5018 47.7996C31.9346 47.9146 32.8001 48.3675 34.9152 48.3675C37.0302 48.3675 42.5027 46.9443 42.2724 40.3314" fill="white"/>
<path d="M183.833 53.7224H182.374C182.011 53.7224 181.711 54.0243 181.711 54.4052V55.8931H180.301C179.938 55.8931 179.637 56.195 179.637 56.576V62.4269H175.435V54.3909C175.435 54.0171 175.135 53.708 174.772 53.708H173.976C173.613 53.708 173.313 54.0171 173.313 54.3909V61.7441C173.313 62.1178 173.613 62.4269 173.976 62.4269H175.435V63.8932C175.435 64.267 175.735 64.5761 176.098 64.5761H183.183C183.546 64.5761 183.847 64.267 183.847 63.8932V62.4053H185.291C185.654 62.4053 185.955 62.1034 185.955 61.7225V55.9075H187.413C187.776 55.9075 188.077 55.6056 188.077 55.2246V53.7224H183.833Z" fill="white"/>
<path d="M196.474 49.4026H185.955V47.9003C185.955 47.5265 185.654 47.2175 185.291 47.2175H183.867V38.5705H194.352V46.5346C194.352 46.9084 194.652 47.2175 195.015 47.2175H196.474V49.4026ZM200.718 38.5848H204.299C204.662 38.5848 204.962 38.2829 204.962 37.902V36.3997H206.337C206.707 36.3997 207 36.0906 207 35.7169V34.8974C207 34.5237 206.707 34.2146 206.337 34.2146H197.144C196.781 34.2146 196.481 34.5165 196.481 34.8974V36.3997H192.237V34.8974C192.237 34.5237 191.937 34.2146 191.574 34.2146H182.409C182.046 34.2146 181.745 34.5165 181.745 34.8974V36.3925H180.301C179.938 36.3925 179.637 36.7016 179.637 37.0754V38.5776H179.651L178.193 38.5848C177.83 38.5848 177.529 38.8867 177.529 39.2677V46.5418C177.529 46.9156 177.823 47.2247 178.193 47.2247H179.637V48.7269C179.637 49.1007 179.938 49.4098 180.301 49.4098H183.805V50.912C183.805 51.2858 184.105 51.5949 184.468 51.5949H188.07V53.7297H194.401V62.3767H192.942C192.579 62.3767 192.279 62.6786 192.279 63.0595V63.879C192.279 64.2527 192.579 64.5618 192.942 64.5618H206.33C206.7 64.5618 206.993 64.2599 206.993 63.879V63.0595C206.993 62.6858 206.7 62.3767 206.33 62.3767H204.906V60.9104C204.906 60.5294 204.606 60.2275 204.243 60.2275H200.718V38.5848Z" fill="white"/>
<path d="M69.4395 47.4188C69.3557 51.2499 67.9317 55.4692 65.4258 59.3003C63.2829 62.5852 60.5536 65.2375 58.0965 66.4307C47.2701 58.1862 46.2719 49.9417 46.6418 45.744C47.1165 40.4034 50.2576 35.796 55.0391 33.4312C56.1211 32.8992 56.9657 32.4177 57.545 32.008C57.6637 31.9289 57.7545 31.857 57.8312 31.7923C58.2361 32.0655 58.99 32.5614 59.8974 33.0143C67.9527 37.097 69.5302 43.0988 69.4325 47.4116M69.956 43.1492C69.6 41.6972 69.0207 40.3171 68.2458 39.0377C67.841 38.3692 67.3733 37.7223 66.8568 37.1042C66.3263 36.4716 65.7329 35.8607 65.0907 35.2928C64.4346 34.7106 63.7017 34.1428 62.9199 33.618C62.1171 33.0789 61.2446 32.5686 60.3232 32.1014C59.0598 31.4617 58.0825 30.7429 58.0825 30.7429L57.6847 30.4194L57.4124 30.822C57.4124 30.822 57.3007 30.9513 56.9308 31.1957C56.5608 31.4545 55.8488 31.8858 54.6063 32.5039C53.3639 33.1149 52.2121 33.884 51.172 34.7825C50.139 35.681 49.2245 36.7016 48.4497 37.8229C47.6679 38.9514 47.0397 40.1878 46.565 41.4888C46.0834 42.8185 45.7763 44.213 45.6506 45.6433C45.4971 47.3684 45.6087 49.151 45.9787 50.9264C46.3696 52.7881 47.0397 54.6498 47.982 56.4539C48.9732 58.3587 50.2716 60.2347 51.8421 62.0173C52.6588 62.9446 53.5593 63.8646 54.5226 64.7487C55.5138 65.6616 56.5957 66.5529 57.7335 67.4082L57.9569 67.5807L58.2152 67.4657C60.9026 66.2582 63.8971 63.4118 66.2216 59.8538C66.8219 58.9409 67.3663 57.9849 67.848 57.0146C68.3506 56.0083 68.7903 54.9804 69.1533 53.9525C69.9351 51.7315 70.3539 49.5392 70.3958 47.4259C70.4307 45.9452 70.2771 44.5005 69.9421 43.142" fill="white"/>
<path d="M65.9145 39.4905C65.9843 39.5911 66.0611 39.6917 66.1099 39.8068C66.1099 39.8139 66.1169 39.8211 66.1169 39.8283C66.2774 40.2021 66.3472 40.7196 66.082 41.0646C66.0401 41.1221 65.9912 41.1724 65.9354 41.2156C65.6771 41.424 65.3421 41.5103 65.021 41.4312C64.7348 41.3593 64.4905 41.1581 64.3997 40.8634C64.3509 40.7124 64.3509 40.5543 64.3788 40.4033C64.3928 40.3315 64.4137 40.2524 64.4486 40.1877C64.4626 40.1733 64.5952 40.0224 64.5952 40.0224C64.5952 40.0224 63.5132 38.3548 62.3266 37.8517C62.3545 37.521 62.4802 36.8094 62.9897 36.2631C62.9967 36.2559 63.4504 36.6657 63.4923 36.7016C63.6668 36.8597 63.8343 37.0179 63.9949 37.1832C64.3369 37.521 64.665 37.8804 64.9791 38.2542C65.3002 38.6423 65.6073 39.052 65.8935 39.4761M66.8847 41.2443C66.8289 41.345 66.7242 41.5103 66.5706 41.6684C66.2914 41.9487 65.9633 42.1141 65.5864 42.15C65.4817 41.92 65.3909 41.7762 65.3909 41.7762C66.4659 41.6397 66.5287 40.8562 66.5008 40.4896C66.6334 40.734 66.7591 40.9856 66.8777 41.2443M67.1779 41.9416C67.1221 42.035 66.9964 42.2147 66.8149 42.3872C66.5287 42.6532 66.2076 42.8113 65.8516 42.8616C65.8098 42.7322 65.7679 42.6028 65.726 42.4878C66.1448 42.4231 66.5148 42.2291 66.8219 41.9128C66.9126 41.8194 66.9894 41.7259 67.0523 41.6325C67.0941 41.7331 67.136 41.8337 67.1779 41.9344M67.3943 42.5094C67.4781 43.5876 67.4082 45.7511 65.8377 47.1096C65.8377 47.1096 67.5688 49.5319 67.3315 52.3927C66.9545 53.6218 66.4589 54.7647 65.8935 55.8213C65.8935 55.7926 65.8935 55.7638 65.8796 55.7351C65.8167 55.2894 65.6004 54.8725 65.2862 54.585C65.2862 54.585 65.2862 54.585 65.2793 54.585C65.6143 54.2184 66.4868 53.0612 66.2635 50.9623C66.2425 50.797 66.2216 50.6317 66.1867 50.4736C66.1378 50.2148 66.068 49.9488 65.9843 49.6973C65.8865 49.4097 65.7609 49.1294 65.5934 48.8707C65.3211 48.461 64.9233 48.1087 64.4277 48.0441C64.302 48.0297 64.1694 48.0369 64.0577 48.1016C64.0019 48.1303 63.953 48.1591 63.967 48.2238C63.9879 48.2956 64.0647 48.3675 64.0996 48.4322C64.1624 48.5544 64.1973 48.6838 64.2043 48.8203C64.2113 49.0504 64.1205 49.2732 63.967 49.4313C63.7157 49.6973 63.2619 49.8338 62.9269 49.5607C62.5918 49.2947 62.4104 48.9785 62.3964 48.6263C62.3545 47.85 63.0665 47.1168 63.0735 47.1096L63.2061 46.9802L63.0735 46.8509C63.0735 46.8509 62.1521 45.9236 62.2219 45.0827C62.2498 44.752 62.4243 44.4789 62.7454 44.2489C63.2201 43.9182 63.597 44.0548 63.7785 44.1626C64.0786 44.3423 64.2811 44.7017 64.2532 45.018C64.2322 45.2552 64.0926 45.4349 63.8483 45.5427C63.7925 45.5858 63.7366 45.6217 63.6668 45.6505L63.6947 45.7583C64.1554 45.7152 64.6161 45.6217 65.028 45.3989C65.3142 45.248 65.5724 45.0323 65.74 44.7448C65.8865 44.5004 65.9633 44.2201 65.9773 43.9326C65.9912 43.6882 65.9703 43.4438 65.9214 43.2066C66.1029 43.1779 66.2705 43.1276 66.438 43.0485C66.6544 42.9479 66.8638 42.8113 67.0453 42.6316C67.157 42.5238 67.2477 42.4231 67.3175 42.3297C67.3384 42.3872 67.3594 42.4447 67.3803 42.5022M67.0243 47.6559C66.8987 47.5337 66.9196 47.2606 66.9685 47.0665C67.0174 46.8724 67.157 46.7071 67.3105 46.7718C67.4571 46.8293 67.5199 47.0378 67.5199 47.2318C67.5199 47.5409 67.2337 47.8572 67.0313 47.6487M65.3491 56.7773C65.3491 56.7773 65.3142 56.8276 65.3002 56.8564C65.2862 56.8779 65.2723 56.8995 65.2513 56.9211C64.4346 58.2652 63.5272 59.4368 62.6477 60.4359C62.5569 60.3425 62.4313 60.1916 62.2987 59.9903C62.0962 59.6812 61.8519 59.1924 61.7612 58.5455C62.1451 58.5096 62.4941 58.3946 62.7873 58.2149C63.0595 58.0496 63.2899 57.8267 63.4644 57.5464C63.7715 57.0792 63.8274 56.6264 63.8343 56.6048L63.8483 56.497L63.7645 56.4323C63.7645 56.4323 63.3527 56.1088 63.3318 55.656C63.3178 55.3685 63.4714 55.081 63.7715 54.8007C64.3439 54.2688 64.8814 54.6928 65.0349 54.8294C65.4956 55.2535 65.733 56.0585 65.3351 56.7629M58.3408 64.3318C57.3915 63.7424 55.8838 62.7361 54.3062 61.2338C54.5156 60.9894 54.6762 60.7091 54.7949 60.4072C54.8228 60.3353 54.8507 60.2634 54.8716 60.1916C55.2905 60.1987 56.498 60.551 58.2641 63.7711C58.2641 63.7711 59.6392 60.9607 61.9846 60.0622C62.0055 60.0981 62.0334 60.1341 62.0544 60.17C62.2009 60.3928 62.3406 60.5581 62.4383 60.6588C60.2814 63.0451 58.3408 64.339 58.3408 64.339M52.0516 58.754C51.8003 58.3587 50.8719 56.7989 51.1162 55.6848C51.1162 55.6632 51.1302 55.6344 51.1302 55.6129V55.5985C51.1372 55.3541 51.3117 55.0954 51.4862 54.9516C51.6956 54.7791 51.9678 54.6281 52.2401 54.5994C52.5402 54.5635 52.7915 54.6353 53.0079 54.851C53.0568 54.8797 53.0986 54.9228 53.1405 54.9588C53.4337 55.2463 53.5384 55.6416 53.3988 55.9292C53.2941 56.1448 53.1545 56.2526 52.959 56.2742C52.8055 56.2885 52.6798 56.231 52.6659 56.231L52.3727 56.0945L52.4146 56.4251C52.4146 56.4251 52.4704 56.7989 52.6379 57.2445C52.7357 57.5033 52.8613 57.7405 53.0079 57.9418C53.1894 58.2005 53.3988 58.409 53.6361 58.5527C53.9502 58.754 54.3062 58.8474 54.6971 58.8474C54.7111 59.0056 54.7181 59.2356 54.6971 59.5015C54.6343 60.1125 54.4249 60.63 54.0759 61.0541C53.3918 60.3856 52.7008 59.6309 52.0376 58.7755M48.5614 47.354C48.5614 47.1168 48.6243 46.9012 48.8267 46.7574C48.8756 46.7215 48.9454 46.7359 48.9803 46.7934C49.0989 47.0378 49.3083 47.2246 49.434 47.3181C49.4828 47.354 49.4759 47.4259 49.434 47.4618C49.3014 47.5481 49.064 47.7278 48.9174 47.929C48.8825 47.9722 48.8267 47.9722 48.7918 47.929C48.708 47.814 48.5754 47.5984 48.5754 47.354M49.0431 53.3415C48.1356 48.77 49.8598 47.4906 49.8598 47.4906C48.5056 46.1752 48.3241 44.1698 48.3032 43.4438C48.366 43.5157 48.4428 43.5804 48.5335 43.6523C48.7569 43.8248 49.0082 43.9542 49.2874 44.0332C49.5317 44.1051 49.797 44.141 50.0831 44.141C50.139 44.141 50.1948 44.141 50.2507 44.141C50.2158 44.141 50.3344 44.8167 50.3484 44.8742C50.4042 45.0827 50.488 45.2695 50.5857 45.4636C50.7463 45.7727 50.9906 46.0386 51.2279 46.2902C51.4652 46.5418 51.7305 46.779 52.0376 46.9515C52.3238 47.1096 52.631 47.2174 52.9521 47.2606C53.2871 47.3109 53.6222 47.2678 53.9642 47.275C54.4458 47.2821 54.8228 47.505 55.0741 47.9219C55.2835 48.2669 55.3952 48.691 55.3952 49.1007C55.3952 49.3954 55.3114 50.0854 54.6483 50.1645C54.2364 50.2148 53.9293 50.1357 53.7408 49.9201C53.4197 49.5607 53.4686 49.036 53.5035 48.5831C53.5035 48.5975 53.1126 48.425 53.0847 48.4106C52.973 48.3603 52.8543 48.3172 52.7357 48.2884C52.4355 48.2166 52.1214 48.2309 51.8282 48.3316C51.4303 48.4681 51.0883 48.7557 50.8161 49.0791C49.3781 50.8042 50.6206 53.9309 51.1232 54.9228C50.9557 55.1241 50.844 55.3541 50.7882 55.6273C50.7114 55.9651 50.7253 56.3604 50.8231 56.8061C50.844 56.8995 50.8719 57.0001 50.8998 57.1008C50.2018 55.9867 49.5666 54.736 49.064 53.3487M48.5265 42.5238C48.5824 42.5956 48.6522 42.6819 48.736 42.761C48.9244 42.9479 49.1478 43.106 49.4061 43.221C49.6783 43.3504 49.9784 43.4366 50.3135 43.4726C50.2995 43.566 50.2856 43.6666 50.2786 43.7745C49.6853 43.8104 49.1827 43.6738 48.7848 43.3719C48.5824 43.2138 48.4498 43.0485 48.3869 42.955C48.4358 42.8113 48.4777 42.6603 48.5265 42.5166M49.2734 40.7843C49.1897 41.46 49.2665 41.9847 49.4898 42.3441C49.6923 42.6675 50.0064 42.8472 50.4252 42.8832C50.4112 42.9479 50.3903 43.0269 50.3693 43.1132C49.8039 43.0485 49.3363 42.84 48.9872 42.5094C48.8267 42.3584 48.729 42.2075 48.6731 42.1069C48.8476 41.6468 49.0501 41.2084 49.2665 40.7915M49.5945 41.1293C49.6015 40.9352 49.6224 40.7196 49.6574 40.5112C49.7132 40.1805 49.8109 39.8499 49.9854 39.5911C50.1739 39.3036 50.3763 39.0305 50.5857 38.7645C50.9906 38.247 51.4303 37.7582 51.891 37.2982C52.3168 36.8741 52.7706 36.4788 53.2382 36.105C53.2871 36.1841 53.336 36.2919 53.3848 36.4213C53.5035 36.7591 53.6012 37.3557 53.4128 38.2829C53.0986 38.4195 52.7775 38.6351 52.4564 38.9442C51.8003 39.5839 51.5979 40.4177 51.542 40.9928C51.542 41.0143 51.6258 41.1149 51.6398 41.1365C51.6677 41.1868 51.6886 41.2228 51.7026 41.2803C51.7235 41.4025 51.7305 41.5247 51.7096 41.6468C51.6747 41.8912 51.563 42.1212 51.3885 42.2866C51.1651 42.495 50.858 42.5885 50.5578 42.5597C50.2646 42.531 49.9505 42.4231 49.79 42.1572C49.6015 41.8625 49.5875 41.4743 49.6015 41.1365M54.2434 35.3646C54.3202 35.5012 54.4109 35.7025 54.4947 35.9469C54.6483 36.4069 54.7879 37.1401 54.6203 38.0601C54.3691 38.0457 54.0898 38.0745 53.7967 38.1535C53.9991 36.9244 53.7338 36.2272 53.5244 35.8894C53.7687 35.7025 54.0061 35.53 54.2434 35.3646ZM57.9918 33.3449C57.9918 33.3449 59.6043 33.8839 61.5518 35.1921C61.3354 35.3646 61.1469 35.5947 61.0003 35.8894C60.9864 35.9181 60.9724 35.9397 60.9585 35.9684C60.2255 35.4653 58.1873 34.4087 58.1873 34.4087C57.1333 34.8543 55.437 35.8247 54.9135 36.1266C54.8856 36.0187 54.8577 35.9109 54.8228 35.8031C54.732 35.53 54.6273 35.3143 54.5366 35.1562C56.4282 33.8911 57.9918 33.3377 57.9918 33.3377M61.0352 38.3404C61.0352 38.3404 61.0352 38.2829 61.0562 38.2614C61.0701 38.2398 61.0981 38.2254 61.119 38.211C61.2307 38.1464 61.3773 38.1248 61.5029 38.1607C61.5518 38.1751 61.6006 38.1967 61.6286 38.2398C61.6495 38.2757 61.6565 38.3045 61.6495 38.3261C61.6286 38.4123 61.461 38.4339 61.3912 38.4411C61.3075 38.4482 61.2307 38.4411 61.1469 38.4267C61.0981 38.4123 61.0492 38.3907 61.0352 38.3476M59.4228 36.3566L58.3478 37.1329C58.2641 37.1904 58.1594 37.1904 58.0756 37.1329C57.7964 36.9244 57.1402 36.45 56.7633 36.22C56.6726 36.1625 56.6865 36.0259 56.7773 35.9828C57.0983 35.839 57.6638 35.5731 57.9639 35.4006C58.0965 35.3215 58.2641 35.3359 58.3897 35.4365C58.6619 35.6522 59.1226 35.9828 59.4088 36.1481C59.4856 36.1913 59.4926 36.3063 59.4158 36.3566M59.4367 42.0637C59.4367 43.1707 59.1506 43.8607 58.8923 44.2489C58.7038 44.5364 58.5084 44.7089 58.3967 44.7879C57.929 44.3495 57.6079 43.7816 57.4404 43.0988C57.3496 42.7322 57.3287 42.4231 57.3287 42.2578C57.4264 42.2147 57.5241 42.1572 57.6079 42.0997C57.7894 41.9703 57.9569 41.8122 58.0896 41.6181C58.2152 41.4312 58.3269 41.2228 58.4037 40.9856C58.4176 41.0287 58.4316 41.0718 58.4525 41.1078C58.5502 41.3593 58.6829 41.5606 58.8504 41.7187C59.0179 41.884 59.2134 41.9991 59.4367 42.0637ZM60.5815 38.2254C60.1906 38.6351 60.1767 39.1455 60.2116 39.4474C60.2185 39.4977 60.2255 39.548 60.2395 39.5911C60.2814 39.7133 60.3512 39.8211 60.4349 39.9146C60.8328 40.008 61.0003 40.3602 61.0213 40.6837C61.0492 41.194 60.7351 41.7331 60.0789 41.769C59.6601 41.7978 59.339 41.69 59.1017 41.4528C58.7876 41.1437 58.627 40.6909 58.5433 40.2596C58.4386 39.7564 58.4665 39.2245 58.6201 38.7286C58.8015 38.1535 59.0598 37.5857 59.5484 37.2191C60.058 36.8382 60.4978 36.6657 60.7351 36.5938C60.7072 36.7232 60.6792 36.8525 60.6583 36.9891C60.5745 37.5138 60.5745 37.9882 60.5815 38.2182M55.0322 36.8597C55.0322 36.8166 55.0322 36.7735 55.0252 36.7303C55.3254 36.6944 55.9885 36.716 56.9029 37.3341C57.2589 37.5785 57.58 37.8732 57.8383 38.2254C58.0826 38.5704 58.299 38.9801 58.3199 39.4114C58.3478 39.893 58.2641 40.3674 58.0896 40.8202C57.943 41.194 57.7475 41.5534 57.4194 41.7834C56.8191 42.2003 56.1281 42.0709 55.7093 41.8265C55.3114 41.6037 55.088 41.2443 55.102 40.8777C55.1159 40.5255 55.2206 40.274 55.4161 40.1374C55.814 39.8499 56.4771 40.0655 56.4841 40.0655L56.6865 40.1302L56.7144 39.9146C56.7493 39.663 56.7005 39.3899 56.6027 39.1598C56.4631 38.8076 56.17 38.5345 55.8489 38.362C55.7791 38.3261 54.9694 38.0313 54.9624 38.0745C55.0322 37.6648 55.0601 37.2551 55.0252 36.8597M55.3044 45.9883C55.3393 45.8949 55.3672 45.8014 55.3882 45.7008C55.5627 45.7008 55.9187 45.7367 56.2956 45.8374C56.7563 45.9596 57.3427 46.2111 57.6149 46.7359C57.573 46.8437 57.4613 47.0809 57.231 47.3181C56.8261 47.7422 56.2468 47.9722 55.5208 48.0009C55.4789 47.9075 55.4301 47.814 55.3742 47.7278C55.1369 47.3325 54.8088 47.0665 54.4458 46.9659C54.8507 46.7359 55.1439 46.398 55.2974 45.9883M53.5663 45.6217C53.0428 45.3486 52.8055 44.9676 52.8962 44.5507C52.9939 44.1123 53.4407 43.7241 53.8525 43.7241C54.376 43.7241 54.8577 44.1914 55.0182 44.8598C55.1578 45.4564 55.0252 46.2399 54.2225 46.6784C53.5663 47.0306 52.8892 47.0234 52.2121 46.6424C52.1005 46.5777 52.0027 46.513 51.912 46.4483C51.9818 46.4627 52.0586 46.4771 52.1354 46.4843C52.4495 46.5274 52.7357 46.513 52.98 46.4483C53.3011 46.3621 53.5524 46.1896 53.7269 45.938L53.8525 45.7511L53.5593 45.6289L53.5663 45.6217ZM59.4856 54.8438C59.4298 55.0594 59.3879 55.2751 59.3669 55.4979C59.3669 55.5194 59.3669 55.5482 59.3669 55.5698C58.648 55.4404 57.6917 55.5626 57.2798 55.6273C57.2659 55.426 57.238 55.2247 57.2031 55.0091C57.2031 54.9732 57.1891 54.9444 57.1821 54.9085C57.58 54.8582 58.6061 54.7432 59.4856 54.8438ZM57.1681 50.5526C57.1751 50.3873 57.2031 50.071 57.3147 49.6901C57.5102 49.0144 57.8592 48.461 58.3548 48.0441C58.4595 48.1303 58.634 48.2884 58.8155 48.54C59.0738 48.9066 59.3879 49.5535 59.4367 50.5598C59.1785 50.6892 58.9411 50.8617 58.7387 51.0773C58.5363 51.2858 58.3967 51.5014 58.299 51.6739C58.2571 51.6021 58.2152 51.5302 58.1594 51.4511C58.0337 51.2642 57.8941 51.0989 57.7405 50.9551C57.566 50.7898 57.3706 50.6604 57.1681 50.5598M55.465 54.6425C54.5715 54.7288 53.9084 53.9956 53.7199 53.2193C53.5384 52.4718 53.7548 51.4942 54.9275 50.9767C55.7023 50.6389 56.3864 50.5957 56.9587 50.8545C57.3985 51.0486 57.6917 51.3936 57.8662 51.638C58.0546 51.9183 58.1384 52.1483 58.1384 52.1483L58.278 52.5437C58.292 52.5796 58.3408 52.5796 58.3548 52.5437L58.4735 52.1411C58.4735 52.1411 58.5991 51.7242 58.99 51.3289C59.5065 50.797 60.2185 50.5598 61.105 50.6317C62.2498 50.7251 62.8013 51.6596 62.8292 52.4862C62.8501 53.1043 62.5639 53.8734 61.6914 54.01C61.3563 54.0603 61.0492 53.9956 60.7909 53.8159C60.5815 53.6722 60.4768 53.4996 60.4629 53.4853C60.421 53.4134 60.3372 53.3846 60.2604 53.4062C60.2185 53.4206 60.1836 53.4421 60.1627 53.4781C59.9254 53.7944 59.7369 54.1394 59.6043 54.4988C59.1226 54.4413 58.5503 54.4341 57.8871 54.4772C57.5451 54.4988 57.2659 54.5347 57.1053 54.5563C56.9797 54.0028 56.8191 53.5572 56.7424 53.3703C56.7075 53.2768 56.6167 53.2265 56.526 53.2553C56.4352 53.2768 56.3724 53.3703 56.3794 53.4637C56.4003 53.7944 56.3515 54.5563 55.465 54.6425ZM58.4455 57.7692C57.6358 59.2068 55.5278 59.8178 54.9345 59.9615C54.9624 59.8178 54.9903 59.674 55.0043 59.5231C55.0322 59.2428 55.0252 59.0056 55.0043 58.833C55.2206 58.8043 55.444 58.754 55.6744 58.6677C56.3096 58.4449 56.7633 58.0352 57.0216 57.453C57.1751 57.108 57.2659 56.6983 57.2798 56.2382C57.2798 56.1592 57.2798 56.0801 57.2798 55.9938C57.6568 55.9363 58.655 55.7998 59.339 55.9363C59.339 56.1232 59.36 56.3029 59.3949 56.4826C59.4507 56.7917 59.5484 57.0864 59.6811 57.3524C59.8765 57.7333 60.1418 58.0496 60.4559 58.258C60.6234 58.3658 60.7979 58.4521 60.9794 58.5024C61.133 58.5455 61.2865 58.5671 61.4401 58.5743C61.482 58.8762 61.5518 59.1637 61.6565 59.4368C61.7123 59.5878 61.7821 59.7315 61.8519 59.8753C59.9603 59.789 58.4316 57.7549 58.4316 57.7549M58.8155 61.2841C58.8853 61.4566 58.8923 61.6363 58.8644 61.816C58.8504 61.8951 58.8364 61.9742 58.8155 62.0532C58.7946 62.1251 58.7736 62.197 58.7457 62.2617C58.7178 62.3264 58.6759 62.3839 58.6201 62.4342C58.5642 62.4773 58.5014 62.5132 58.4525 62.5636C58.4037 62.6139 58.3757 62.657 58.3618 62.7289C58.3548 62.7864 58.3408 62.8511 58.278 62.8654C58.2012 62.887 58.1524 62.8151 58.1175 62.7648C58.0756 62.6929 58.0337 62.6211 57.9918 62.5492C57.9081 62.4054 57.8173 62.2617 57.7475 62.1107C57.6777 61.967 57.6358 61.816 57.6568 61.6579C57.6777 61.5069 57.7754 61.3991 57.8662 61.2841C57.943 61.1907 58.0407 61.0541 57.9779 60.9247C57.8452 60.8816 57.7056 60.9103 57.573 60.9391C57.4334 60.9678 57.2938 61.0038 57.1542 60.975C57.0285 60.9535 56.9238 60.8816 56.8261 60.8097C56.6167 60.6516 56.4422 60.4575 56.2956 60.2419C56.2886 60.2275 56.2886 60.1987 56.3026 60.1844C56.4282 60.0837 56.5469 59.9831 56.6935 59.9184C56.8191 59.8609 56.9518 59.825 57.0844 59.8322C57.224 59.8394 57.3427 59.8969 57.4474 59.9831C57.6288 60.1269 57.7754 60.3641 58.0128 60.4288C58.0477 60.2563 57.9639 60.0909 57.8941 59.9472C57.8243 59.8106 57.7545 59.674 57.7405 59.5159C57.7266 59.3721 57.7685 59.2356 57.8522 59.1206C58.0128 58.8977 58.271 58.7612 58.3967 58.5096C58.4106 58.4737 58.4665 58.4808 58.4735 58.5168C58.4874 58.5599 58.5014 58.5959 58.5223 58.6318C58.5712 58.7109 58.641 58.7684 58.7038 58.8259C58.7666 58.8906 58.8225 58.9624 58.8713 59.0487C58.9551 59.214 58.99 59.4009 58.9691 59.5878C58.9621 59.6812 58.9342 59.7747 58.8923 59.8609C58.8504 59.9544 58.7946 60.0406 58.7527 60.1269C58.7108 60.2059 58.655 60.2994 58.655 60.3928C58.655 60.4072 58.655 60.4216 58.6689 60.4216C58.6899 60.4216 58.7108 60.4072 58.7317 60.4C58.7806 60.3784 58.8225 60.3569 58.8644 60.3281C58.9481 60.2706 59.011 60.1987 59.0738 60.1197C59.1436 60.0478 59.2273 59.9903 59.3251 59.9831C59.4298 59.9759 59.5345 60.0047 59.6252 60.055C59.7299 60.1053 59.8276 60.17 59.9254 60.2275L60.0789 60.3138C60.1208 60.3353 60.1627 60.3641 60.1906 60.4C60.2534 60.4934 60.1767 60.5941 60.1208 60.666C60.0022 60.8169 59.8486 60.9319 59.6741 60.9966C59.339 61.126 58.9551 61.0613 58.6689 60.8313C58.6689 60.9822 58.7666 61.126 58.8225 61.2697M61.9636 45.8086C62.0404 46.0171 62.1521 46.2399 62.2987 46.4627C62.4383 46.6784 62.5849 46.8581 62.6826 46.9659C62.529 47.1456 62.2638 47.4978 62.1172 47.9362C61.9636 47.9506 61.6006 47.9722 61.1679 47.8715C60.4349 47.699 59.8486 47.2821 59.4228 46.628C59.6392 46.3693 60.3861 45.6505 61.9148 45.6649C61.9287 45.7152 61.9427 45.7583 61.9636 45.8014M62.194 42.035C64.4765 41.9559 65.7609 42.8472 65.6143 44.0476C65.5305 44.7233 65 45.1042 64.5114 45.3127C64.5533 45.2192 64.5742 45.1186 64.5812 45.018C64.6022 44.7951 64.5463 44.5579 64.4277 44.3351C64.309 44.1195 64.1415 43.9398 63.9321 43.8176C63.7296 43.6954 63.4993 43.6379 63.2689 43.6451C63.0107 43.6523 62.7594 43.7457 62.5151 43.9182C62.1032 44.2129 61.8729 44.5795 61.838 45.018C61.831 45.1042 61.831 45.1977 61.838 45.2911C61.4331 45.2911 61.0492 45.3414 60.6932 45.442C60.3512 45.5355 60.0371 45.6792 59.7578 45.8518C59.2762 46.1608 59.0598 46.4843 59.0528 46.4987L58.99 46.5993L59.0528 46.6999C59.3181 47.1384 59.6531 47.4978 60.044 47.7637C60.3581 47.9722 60.7072 48.1231 61.0841 48.2094C61.3773 48.2741 61.6425 48.2956 61.838 48.2956C61.9078 48.2956 61.9636 48.2956 62.0195 48.2956C62.0055 48.4034 61.9985 48.5113 62.0055 48.6191C62.0334 49.0791 62.2568 49.4816 62.6756 49.8195C62.8571 49.9704 63.0874 50.0495 63.3178 50.0495C63.3667 50.0495 63.4225 50.0495 63.4714 50.0351C63.7366 49.9992 63.9879 49.8626 64.1834 49.6613C64.3579 49.4744 64.4695 49.2516 64.5044 49.0072C65.2444 50.0854 64.1205 51.8536 64.1205 51.8536C65.2164 52.7521 64.7278 53.8662 64.5463 54.1897C64.5044 54.1825 64.4626 54.1753 64.4207 54.1753C64.0926 54.1537 63.7785 54.2759 63.5132 54.5275C63.1223 54.8869 62.9409 55.2751 62.9548 55.6704C62.9758 56.1448 63.2829 56.497 63.4365 56.6407C63.4016 56.7845 63.3248 57.0648 63.1363 57.3452C62.7873 57.8699 62.2568 58.1502 61.5588 58.179C60.9026 58.2077 60.3302 57.8339 59.9882 57.1511C59.6043 56.3892 59.4647 55.081 60.3023 53.8303C60.3721 53.9022 60.4628 53.9956 60.5815 54.0747C60.7281 54.1753 60.8956 54.2544 61.0632 54.2975C61.2726 54.355 61.4959 54.3622 61.7263 54.3263C62.194 54.2544 62.5779 54.0172 62.8292 53.6506C63.0595 53.32 63.1782 52.8887 63.1642 52.4358C63.1572 52.1771 63.1084 51.9255 63.0176 51.6811C62.9269 51.4295 62.7943 51.1995 62.6267 50.9983C62.2498 50.5526 61.7263 50.2867 61.119 50.2364C60.6513 50.2004 60.2185 50.2364 59.8346 50.3585C59.7997 49.9273 59.7229 49.5248 59.5973 49.1582C59.4786 48.8132 59.3181 48.5041 59.1296 48.2309C58.7946 47.7565 58.4595 47.5697 58.4455 47.5553L58.3269 47.4906L58.2222 47.5697C57.8732 47.8428 57.58 48.1662 57.3496 48.5472C57.1682 48.8491 57.0216 49.1869 56.9169 49.5463C56.8191 49.877 56.7842 50.1645 56.7633 50.3657C56.1769 50.2076 55.5138 50.2867 54.7879 50.6101C54.4807 50.7467 54.2085 50.9192 53.9921 51.1277C53.7897 51.3217 53.6222 51.5445 53.5105 51.7961C53.4058 52.0261 53.336 52.2777 53.315 52.5365C53.2941 52.7809 53.315 53.0324 53.3779 53.2768C53.4965 53.7656 53.7687 54.2112 54.1317 54.5203C54.3202 54.6856 54.5296 54.8007 54.7599 54.8797C54.9973 54.9588 55.2486 54.9875 55.4999 54.966C55.7791 54.9372 56.0234 54.8582 56.2119 54.7144C56.3794 54.5994 56.505 54.4413 56.5958 54.2472C56.6097 54.2113 56.6307 54.1681 56.6446 54.1322C56.882 54.9516 57.1472 56.2957 56.7144 57.2661C56.498 57.7549 56.1141 58.0999 55.5766 58.2868C54.8926 58.524 54.3132 58.5024 53.8525 58.2077C53.4058 57.9274 53.1405 57.4386 53.0009 57.0792C52.9311 56.8995 52.8822 56.7342 52.8473 56.6048C52.8892 56.6048 52.9381 56.6048 52.987 56.6048C53.1335 56.5976 53.2662 56.5545 53.3848 56.4754C53.5314 56.382 53.6501 56.2454 53.7338 56.0585C53.8385 55.8429 53.8595 55.5841 53.7897 55.3254C53.7269 55.0882 53.5873 54.851 53.3988 54.6713C53.2731 54.5491 53.1335 54.4269 52.966 54.3694C52.8683 54.3406 52.7636 54.3263 52.6728 54.2831C52.2889 54.125 52.1214 53.6218 52.1005 53.2337C52.0656 52.7449 52.2819 52.1411 52.7287 51.9111C52.7357 51.9039 52.7426 51.8968 52.7496 51.8824C52.7496 51.8824 51.5839 51.1133 51.9329 49.9992C52.1982 49.1438 52.8543 49.1582 53.1335 49.2157C53.1615 49.5176 53.2522 49.8626 53.4826 50.1142C53.7059 50.3657 54.027 50.4951 54.4319 50.4951C54.5156 50.4951 54.6064 50.4951 54.6971 50.4807C55.0392 50.4376 55.3184 50.2651 55.5068 49.9848C55.6674 49.7404 55.7512 49.4241 55.7581 49.0575C55.7581 48.8132 55.7232 48.5616 55.6534 48.3172C56.0583 48.2884 56.4213 48.2022 56.7424 48.0584C57.0355 47.929 57.2938 47.7422 57.5032 47.5193C57.8662 47.1312 57.9779 46.7502 57.9779 46.7359L57.9988 46.6712L57.9709 46.6137C57.8313 46.2974 57.6009 46.0315 57.2798 45.823C57.0285 45.6577 56.7284 45.5355 56.3864 45.442C55.9955 45.3414 55.6395 45.3055 55.437 45.2983C55.437 45.1042 55.4231 44.9173 55.3742 44.7304C55.2835 44.3495 55.095 43.9973 54.8367 43.7457C54.5575 43.4654 54.2225 43.3216 53.8665 43.3216C53.5873 43.3216 53.3011 43.4366 53.0498 43.6523C52.8055 43.8607 52.631 44.141 52.5681 44.4286C52.5053 44.7089 52.5402 44.982 52.6728 45.2264C52.7985 45.4636 53.0149 45.6721 53.308 45.8446C52.8404 46.2543 52.0237 46.0746 51.5909 45.9452C50.8719 45.6505 50.5648 44.5795 50.8719 43.5804C51.3187 42.1356 53.2452 42.0925 53.2452 42.0925C53.2452 42.0925 52.3378 40.1518 53.4546 39.2102C54.4668 38.3548 55.4719 38.592 55.6953 38.6639C55.8489 38.7358 55.9815 38.8292 56.0862 38.9442C56.2258 39.1023 56.3166 39.2964 56.3584 39.5264C56.3584 39.5624 56.3654 39.5983 56.3724 39.6271C56.0862 39.5696 55.5976 39.5336 55.2206 39.7996C54.9275 40.008 54.7739 40.353 54.753 40.8274C54.732 41.3378 55.0252 41.8122 55.5417 42.1069C55.8419 42.2794 56.2049 42.3728 56.5539 42.3728C56.7005 42.3728 56.8471 42.3584 56.9867 42.3225C56.9936 42.5166 57.0285 42.7969 57.1053 43.1204C57.1891 43.4726 57.3147 43.8104 57.4823 44.1123C57.6917 44.4932 57.9569 44.8239 58.278 45.1042L58.3688 45.1833L58.4735 45.133C58.4735 45.133 58.8434 44.9389 59.1855 44.4286C59.3809 44.1339 59.5345 43.7888 59.6322 43.4079C59.7369 43.0054 59.7997 42.5669 59.7997 42.0853C59.8556 42.0853 59.9114 42.0853 59.9673 42.0853C60.0161 42.0853 60.058 42.0853 60.1069 42.0853C60.9794 42.035 61.4122 41.2875 61.3773 40.6118C61.3703 40.4393 61.3284 40.2812 61.2656 40.1374C61.2726 39.9146 61.2446 39.6342 61.105 39.4042C60.8049 38.9226 60.8677 38.7501 60.8677 38.7501C61.7542 38.9873 62.1381 38.3189 62.1381 38.3189C62.1381 38.3189 62.6547 38.5057 62.7873 39.8499C62.892 40.9209 62.3266 41.4743 62.0823 41.654C62.0195 41.7044 61.9915 41.7834 62.0055 41.8625C62.0264 41.9631 62.1102 42.035 62.2149 42.035M62.7105 35.9972C62.55 36.1697 62.4173 36.371 62.3056 36.5938C62.2009 36.8022 62.1172 37.0322 62.0613 37.2766C62.0195 37.4419 61.9985 37.5857 61.9846 37.7079C61.7612 37.6648 61.5308 37.6648 61.3144 37.7438C61.1748 37.7941 61.0492 37.8517 60.9375 37.9163C60.9375 37.6791 60.9585 37.3557 61.0143 37.0107C61.105 36.4356 61.3284 35.6953 61.8589 35.3646C62.1381 35.5587 62.4173 35.7744 62.7035 35.9972M57.9848 32.7411C57.9848 32.7411 57.9499 32.7555 57.943 32.7555C57.9011 32.7698 57.8592 32.7842 57.8173 32.8058C57.7475 32.8345 57.6847 32.8633 57.6149 32.8848C57.5241 32.9208 57.4334 32.9639 57.3427 32.9998C57.231 33.0502 57.1193 33.1005 57.0076 33.1508C56.875 33.2083 56.7493 33.273 56.6167 33.3377C56.4701 33.4095 56.3235 33.4886 56.1769 33.5605C56.0164 33.6467 55.8559 33.733 55.6953 33.8193C55.5208 33.9127 55.3533 34.0133 55.1788 34.1211C54.9973 34.229 54.8158 34.344 54.6343 34.459C54.4458 34.5812 54.2574 34.7106 54.0689 34.8399C53.8735 34.9765 53.678 35.1131 53.4895 35.2568C53.2871 35.4078 53.0917 35.5587 52.8962 35.7169C52.6938 35.8822 52.4983 36.0475 52.3029 36.22C52.1005 36.3997 51.905 36.5794 51.7165 36.7663C51.5211 36.9604 51.3256 37.1544 51.1372 37.3557C50.9487 37.5641 50.7602 37.7726 50.5787 37.9954C50.3973 38.2182 50.2158 38.4411 50.0482 38.6783C49.9435 38.822 49.8388 38.9801 49.7341 39.1239C49.6155 39.2964 49.5038 39.4689 49.3921 39.6486C49.3223 39.7636 49.2525 39.8786 49.1897 39.9936C49.057 40.2308 48.9244 40.468 48.8058 40.7124C48.6801 40.964 48.5684 41.2156 48.4637 41.4672C48.352 41.7259 48.2543 41.9919 48.1636 42.265C48.0728 42.5381 47.9821 42.8185 47.9123 43.0988C47.8355 43.3863 47.7657 43.681 47.7098 43.9757C47.654 44.2776 47.6051 44.5867 47.5633 44.8886C47.5214 45.2048 47.5004 45.5283 47.4795 45.8446C47.4655 46.1752 47.4586 46.5058 47.4655 46.8437C47.4655 47.0737 47.4795 47.3109 47.4935 47.5409C48.1775 57.9633 55.5697 63.1601 58.3408 64.8781C58.3408 64.8781 69.0835 57.7261 68.4274 46.0602C67.862 36.0331 57.9639 32.7339 57.9639 32.7339" fill="white"/>
<path d="M135.85 58.5384C133.218 61.3488 129.714 62.8942 125.987 62.8942C123.718 62.8942 121.533 62.3192 119.572 61.2338L118.986 62.4989L118.176 62.1036C113.394 59.7459 110.302 54.7144 110.302 49.2804C110.302 45.7727 111.559 42.4016 113.841 39.7924L114.441 39.1096L115.775 40.3459L115.174 41.0359C113.185 43.3073 112.096 46.2399 112.096 49.2876C112.096 52.7234 113.527 55.9723 115.9 58.2868L116.368 57.8196L116.605 58.0712C119.111 60.7451 122.441 62.2186 125.987 62.2186C129.533 62.2186 132.862 60.7451 135.368 58.0712L135.606 57.8196L136.087 58.3012L135.85 58.5527V58.5384ZM125.456 38.3692H126.015V39.5264H125.456C120.193 39.5264 115.914 43.947 115.914 49.3738C115.914 54.8007 120.193 59.2212 125.456 59.2212H126.015V60.3785H125.456C119.579 60.3785 114.79 55.4404 114.79 49.3738C114.79 43.3073 119.572 38.3692 125.456 38.3692ZM134.126 54.5994C133.072 56.0298 131.578 57.108 129.812 57.6758L129.491 57.7765L129.289 57.1152L129.61 57.0145C131.278 56.4755 132.681 55.4476 133.651 54.0891L132.716 53.0684C132.716 53.0684 129.917 56.612 125.401 56.612C120.884 56.612 117.869 53.2912 117.869 49.0791C117.869 44.867 121.101 41.5462 125.401 41.5462C129.7 41.5462 132.499 45.0899 132.499 45.0899L135.906 41.4528C132.039 36.9173 126.043 35.1993 121.024 37.291L120.919 37.3341L120.835 37.1185L120.94 37.0754C126.043 34.9478 132.137 36.6872 136.066 41.2875L136.73 40.5831C134.356 37.6432 131.062 35.7816 127.383 35.3144C123.572 34.8328 119.816 35.9109 116.801 38.3548L116.536 38.5705L116.117 38.0242L116.382 37.8085C119.537 35.2497 123.474 34.1212 127.467 34.6243C131.292 35.1059 134.726 37.0394 137.204 40.0799L138.321 38.8867C138.321 38.8867 134.014 32.6836 125.191 32.6836C115.502 32.6836 108.187 40.2165 108.187 49.0863C108.187 57.9562 115.502 65.489 125.191 65.489C134.014 65.489 138.405 59.2859 138.405 59.2859L134.126 54.6138V54.5994Z" fill="white"/>
<defs>
<clipPath id="clip0_3_502">
<rect width="188" height="8" fill="white" transform="translate(17.0001 12.4194)"/>
</clipPath>
</defs>
</svg>
