<svg width="46" height="50" viewBox="0 0 46 50" fill="none" xmlns="http://www.w3.org/2000/svg">
<g id="vdnh-logo">
<g id="Page 1">
<g id="Vector">
<path fill-rule="evenodd" clip-rule="evenodd" d="M3.37036 16.7775H43.174V15.1031H3.37036V16.7775Z" fill="#D3112B"/>
<path fill-rule="evenodd" clip-rule="evenodd" d="M33.8642 19.8275H29.4643V35.4828H27.3594V24.8607C27.3594 23.9713 27.3085 23.4089 27.1433 22.8592C26.8246 21.7606 26.0842 20.5864 25.1536 20.1151C24.5918 19.8275 23.9418 19.7098 23.2658 19.7098C22.4756 19.7098 21.7352 19.8798 21.111 20.2722C20.2814 20.7824 19.6436 21.8912 19.3508 22.9642C19.2107 23.4611 19.1722 24.0101 19.1722 24.8607V35.4828H17.0683V19.8275H12.6681V35.4828H10.5896L10.5636 19.8275H6.30387V35.4828H4.21247V19.8275H3.37036V18.1531H43.1738V19.8275H42.3326V35.4828H40.2412V19.8275H35.9556V35.4828H33.8642V19.8275Z" fill="#D3112B"/>
<path fill-rule="evenodd" clip-rule="evenodd" d="M3.96509 12.507L5.1894 10.8325L6.40122 12.507L5.1894 14.1814L3.96509 12.507Z" fill="#D3112B"/>
<path fill-rule="evenodd" clip-rule="evenodd" d="M9.51313 42.2906C10.2266 42.6048 10.8391 43.3638 10.8391 44.4624C10.8391 45.8754 10.0864 46.7776 9.12994 47.0523C8.54316 47.2355 7.9316 47.2355 7.37078 47.2355H3.96468V37.6733H7.57437C8.0208 37.6733 8.51838 37.6859 9.01576 37.8171C9.87035 38.0523 10.6605 38.7851 10.6605 40.1326C10.6605 41.3752 9.97205 41.9769 9.51313 42.2256V42.2906ZM7.63761 41.8199C7.97006 41.8199 8.27534 41.7805 8.53067 41.6239C8.90038 41.4145 9.15591 40.9698 9.15591 40.3026C9.15591 39.6485 8.84963 39.2166 8.403 39.0601C8.18712 38.9683 7.91911 38.9417 7.57437 38.9417H5.44452V41.8199H7.63761ZM9.29606 44.4624C9.29606 43.7691 8.96481 43.3766 8.56913 43.2066C8.3138 43.1017 8.0208 43.0757 7.76547 43.0757H5.44452V45.9797H7.7405C8.0208 45.9797 8.28882 45.9537 8.50589 45.8754C9.00327 45.6788 9.29606 45.2209 9.29606 44.4624Z" fill="#D3112B"/>
<path fill-rule="evenodd" clip-rule="evenodd" d="M11.2829 12.4414C10.9642 12.3236 10.7346 12.0227 10.7346 11.6569C10.7346 11.1988 11.0918 10.8324 11.5509 10.8324C11.9974 10.8324 12.3546 11.1988 12.3546 11.6569C12.3546 12.0227 12.1375 12.3236 11.8188 12.4286L12.5966 14.0507H10.505L11.2829 12.4414Z" fill="#D3112B"/>
<path fill-rule="evenodd" clip-rule="evenodd" d="M22.6473 45.8356L21.6525 47.2352H12.291L17.3669 37.673H20.479V45.8751L22.6473 45.8356ZM19.0251 45.9399V38.8371H18.0563L14.3699 45.9399H19.0251Z" fill="#D3112B"/>
<path fill-rule="evenodd" clip-rule="evenodd" d="M17.0483 13.9307H29.4443V12.2562H17.0483V13.9307Z" fill="#D3112B"/>
<path fill-rule="evenodd" clip-rule="evenodd" d="M20.8139 10.881H25.839V9.20653H20.8139V10.881Z" fill="#D3112B"/>
<path fill-rule="evenodd" clip-rule="evenodd" d="M21.4092 4.7676H25.1081V3.10596H21.4092V4.7676Z" fill="#D3112B"/>
<path fill-rule="evenodd" clip-rule="evenodd" d="M21.8057 6.15592H24.5349L23.1702 8.0396L21.8057 6.15592Z" fill="#D3112B"/>
<path fill-rule="evenodd" clip-rule="evenodd" d="M32.4588 37.673V47.2354H30.979V42.8007H26.2478V47.2354H24.7805V37.673H26.2478V41.4926H30.979V37.673H32.4588Z" fill="#D3112B"/>
<path fill-rule="evenodd" clip-rule="evenodd" d="M34.6787 12.4286C34.3599 12.3236 34.1428 12.0227 34.1428 11.6569C34.1428 11.1988 34.5001 10.8324 34.9467 10.8324C35.4056 10.8324 35.7628 11.1988 35.7628 11.6569C35.7628 12.0227 35.5333 12.3236 35.2145 12.4414L35.9924 14.0507H33.9008L34.6787 12.4286Z" fill="#D3112B"/>
<path fill-rule="evenodd" clip-rule="evenodd" d="M38.932 43.3368L36.3692 47.2351H34.8894L38.2311 42.3037L35.043 37.6729H36.8157L39.1366 41.0479L41.3422 37.6729H42.7711L39.8251 42.0682L43.3704 47.2351H41.6102L38.932 43.3368Z" fill="#D3112B"/>
<path fill-rule="evenodd" clip-rule="evenodd" d="M40.0434 12.5069L41.2552 10.8325L42.4796 12.5069L41.2552 14.1814L40.0434 12.5069Z" fill="#D3112B"/>
</g>
</g>
</g>
</svg>
